<?xml version="1.0" encoding="utf-8"?>
<!-- Generator: Adobe Illustrator 26.0.3, SVG Export Plug-In . SVG Version: 6.00 Build 0)  -->
<svg version="1.0" id="katman_1" xmlns="http://www.w3.org/2000/svg" xmlns:xlink="http://www.w3.org/1999/xlink" x="0px" y="0px"
	 viewBox="0 0 800 600" style="enable-background:new 0 0 800 600;" xml:space="preserve">
<style type="text/css">
	.st0{fill-rule:evenodd;clip-rule:evenodd;fill:#00007F;}
	.st1{fill-rule:evenodd;clip-rule:evenodd;fill:#393E47;}
	.st2{fill-rule:evenodd;clip-rule:evenodd;fill:#65C1C2;}
	.st3{fill-rule:evenodd;clip-rule:evenodd;fill:#00FFFF;}
	.st4{fill-rule:evenodd;clip-rule:evenodd;fill:#7FFFFF;}
</style>
<g>
	<path class="st0" d="M221.4,311.4l-5.6,5.7l5.7-5.6c3.2-3.1,5.7-5.7,5.7-5.7C227.2,305.5,226.6,306,221.4,311.4"/>
	<path class="st1" d="M527.4,105.1c-30.6,3.9-56.1,36.9-51.6,66.5c0.3,2.2,0.6,4.1,0.5,4.1c-0.1,0.1-3.5-3.8-7.7-8.5
		c-4.8-5.4-7.9-8.6-8.4-8.6c-1.4,0-8.2,7.4-10.4,11.2c-5.7,10.1-6,21.1-1.1,32.1c0.6,1.4,1,2.4,0.7,2.3c-0.2-0.1-4.2-3.4-8.9-7.3
		l-8.5-7l-12.6,12.6c-6.9,6.9-12.6,12.8-12.6,13c0,0.2,6.9,7.3,15.4,15.8c13.2,13.2,15,15.1,12.6,13.5c-22.9-15.1-48.9-12.5-69.4,7
		c-22,20.9-25.7,48.5-9.7,73.9l1.5,2.3l-1.8-1.6c-14.3-13.3-29.6-17.5-45.6-12.4c-16.9,5.4-31.6,24-31.1,39.3l0.1,3.8l-25.7-25.7
		l-25.7-25.7l-14,13.8c-7.7,7.6-14,13.9-14,14.2c0,0.2,23.1,23.5,51.4,51.8l51.4,51.4h55.9l-20.9-21c-26.8-26.9-30.5-31.6-32.3-40.3
		c-1.8-8.7,6.4-19.3,14.9-19.3c8.6,0,14.5,4.6,44,34l21.7,21.6l13.9-13.9l13.9-13.9l-16.1-16.1c-14.8-14.8-15.9-16-13.3-14.4
		c23.3,14.1,47.9,12.5,69.3-4.7c12.7-10.2,29.1-31.2,29-37c0-0.9-21-14.3-21.5-13.7c-0.2,0.3-1.9,2.8-3.7,5.4
		c-17.5,25.3-32.2,31.7-45.9,19.9l-1.7-1.5l26.3-26.3l26.3-26.3l16.7,16.7l16.7,16.7l14.5-14.5c8-8,14.5-14.6,14.5-14.9
		c0-0.2-9.9-10.3-22.1-22.5c-25.1-25.2-26.3-26.6-28.6-34.4c-2.4-8,0.1-18.1,6.3-25.3c2.9-3.4,2.9-3.4,4.8,0.1
		c9,16.8,27.2,32.6,43.8,38.3c22.4,7.6,43.2,1.6,63.9-18.7c9.9-9.6,20.4-24.5,20.3-28.9c0-0.6-22.4-14.8-22.7-14.4
		c-0.1,0.1-1.1,1.6-2.2,3.4c-17.9,26.8-34.5,34.7-47.9,22.6l-1.9-1.7l26.5-26.5l26.5-26.5l-4.2-4.7
		C566.8,111.9,547.4,102.5,527.4,105.1 M530.5,138c2.9,1.1,6.5,3.3,10,6.2l2.9,2.4l-12.4,12.4c-14.2,14.2-12.2,13.3-16.3,7.8
		c-7.4-9.8-7.7-16.5-1.2-23.5C518.9,137.2,524.2,135.6,530.5,138 M401.7,269.7c3.1,1.5,8.6,5.4,10,7.2c0.5,0.6-23,25.2-24.2,25.2
		c-0.6,0-5.8-7.6-7.3-10.8C373.6,277.3,387.8,263,401.7,269.7"/>
	<path class="st2" d="M183.4,436.6c0,0.2,13.3,13.6,29.5,29.8l29.4,29.4l29.7-29.7l29.7-29.8h-59.2
		C210.1,436.3,183.4,436.4,183.4,436.6"/>
	<path class="st3" d="M269,469.2L250.4,488l18.8-18.7c10.3-10.3,18.8-18.7,18.8-18.8C287.9,450.2,286.4,451.7,269,469.2"/>
	<path class="st4" d="M294.6,443.6l-6.8,6.9l6.9-6.8c3.8-3.8,6.9-6.9,6.9-6.9C301.6,436.5,300.9,437.2,294.6,443.6"/>
</g>
</svg>
