<svg version="1.1" id="Layer_1" xmlns:x="ns_extend;" xmlns:i="ns_ai;" xmlns:graph="ns_graphs;" xmlns="http://www.w3.org/2000/svg" xmlns:xlink="http://www.w3.org/1999/xlink" x="0px" y="0px" viewBox="0 0 72 66" style="enable-background:new 0 0 72 66;" xml:space="preserve">
 <style type="text/css">
  .st0{fill:#48DAD0;}
	.st1{fill:#FFFFFF;}
 </style>
 <metadata>
  <sfw xmlns="ns_sfw;">
   <slices>
   </slices>
   <sliceSourceBounds bottomLeftOrigin="true" height="66" width="72" x="148.2" y="-218.4">
   </sliceSourceBounds>
  </sfw>
 </metadata>
 <g>
  <path class="st0" d="M19.8,56.1L9.9,66L0,56.1H19.8z">
  </path>
  <path class="st1" d="M34.4,33.4c-2.2-2.5-2-3.8-0.7-5c1.6-1.6,3.1-0.9,4.9,0.9L34.4,33.4z M55.6,6.4c1.6-1.6,3.1-0.9,4.9,0.9
		l-4.1,4.1C54.2,9.1,54.3,7.7,55.6,6.4z M68.4,10.8c-2,2.9-5.2,7.6-8.8,4l9-9c-0.7-0.9-1.4-1.6-1.8-2C61.9-1.1,56.5-1.1,52.4,3
		c-2.9,2.9-3.6,6.1-2.7,9.2L46.8,9c-0.9,0.5-4.3,3.4-1.6,8.1l-3.2-2.7l-4.3,4.3l5.8,5.8c-4.5-3.4-9.2-3.2-13,0.7
		c-4.1,4.1-3.8,9-0.7,13.1l-0.5-0.5c-4.1-4.1-8.5-2.7-10.6-0.5c-1.6,1.6-2.7,4-2.3,5.6l-9-8.6l-4.7,4.7l17.3,17.3h9.4l-6.3-6.3
		c-3.2-3.2-3.2-5-1.8-6.7c1.4-1.4,3.2-0.5,6.5,2.5l6.1,6.1l4.7-4.7l-5.8-5.8c4.1,3.2,9.2,3.4,13.9-1.1l0,0c2.7-2.5,3.6-5,3.6-5
		l-3.4-2.3c-2,2.9-5.2,7.6-8.8,4.1l9-9l5.6,5.6l4.9-4.9l-7-7c-3.2-3.2-1.3-6.3,0-7.4c0.7,1.3,1.6,2.7,2.7,3.8
		c4.5,4.5,10.3,5.4,15.5,0.4l0,0c2.7-2.5,3.6-5,3.6-5L68.4,10.8z">
  </path>
 </g>
</svg>