<svg version="1.1" id="Körber" xmlns:x="ns_extend;" xmlns:i="ns_ai;" xmlns:graph="ns_graphs;" xmlns="http://www.w3.org/2000/svg" xmlns:xlink="http://www.w3.org/1999/xlink" x="0px" y="0px" viewBox="0 0 149.6 88" style="enable-background:new 0 0 149.6 88;" xml:space="preserve">
 <style type="text/css">
  .st0{fill:#FFFFFF;}
 </style>
 <metadata>
  <sfw xmlns="ns_sfw;">
   <slices>
   </slices>
   <sliceSourceBounds bottomLeftOrigin="true" height="88" width="149.6" x="1550.5" y="0">
   </sliceSourceBounds>
  </sfw>
 </metadata>
 <g>
  <path class="st0" d="M44,33.1c-6,0-10.9,4.9-10.9,10.9c0,6,4.9,10.9,10.9,10.9S54.9,50,54.9,44C54.9,38,50,33.1,44,33.1
		C44,33.1,44,33.1,44,33.1z M44,51.3c-4,0-7.3-3.3-7.3-7.3s3.3-7.3,7.3-7.3s7.3,3.3,7.3,7.3v0C51.3,48,48,51.3,44,51.3z M105.6,0
		C94.1,0,83,4.5,74.8,12.6C66.6,4.5,55.5,0,44,0C19.7,0,0,19.7,0,44s19.7,44,44,44c11.5,0,22.6-4.5,30.8-12.6
		C83,83.5,94.1,88,105.6,88c24.3,0,44-19.7,44-44S129.9,0,105.6,0L105.6,0z M105.6,84.6c-11.1,0-21.1-4.5-28.4-11.7
		c3.2-3.7,5.7-7.8,7.6-12.3H81c-1.6,3.5-3.7,6.8-6.2,9.8c-2.5-2.9-4.6-6.2-6.2-9.8h-3.8c1.8,4.5,4.4,8.6,7.6,12.3
		C65.1,80.1,55.1,84.6,44,84.6C21.6,84.6,3.4,66.4,3.4,44S21.6,3.4,44,3.4c11.1,0,21.1,4.5,28.4,11.7c-3.2,3.7-5.7,7.8-7.6,12.3h3.8
		c1.6-3.5,3.7-6.8,6.2-9.8c2.5,2.9,4.6,6.2,6.2,9.8h3.8c-1.8-4.5-4.4-8.6-7.6-12.3c7.3-7.2,17.4-11.7,28.4-11.7
		c22.4,0,40.6,18.2,40.6,40.6S128,84.6,105.6,84.6L105.6,84.6z M131.9,46c2.3-1,3.8-3.2,3.9-5.7c0.1-2.6-1.4-4.9-3.8-6
		c-1.5-0.7-3.1-0.8-4.7-0.8h-7.1v21h3.7V47h4.5l4.5,7.5h4.3L131.9,46z M132.1,40.1c0,1-0.4,2-1.3,2.7c-0.8,0.6-1.8,0.9-2.9,0.9
		c-0.9,0-3.6,0-4,0v-7h2.9c1.3,0,2.8-0.1,3.9,0.7C131.6,38.1,132.1,39.1,132.1,40.1z M42.8,28.7c0,1.1-0.9,2-2,2s-2-0.9-2-2
		c0-1.1,0.9-2,2-2S42.8,27.6,42.8,28.7L42.8,28.7z M49.2,28.7c0,1.1-0.9,2-2,2c-1.1,0-2-0.9-2-2c0-1.1,0.9-2,2-2
		C48.3,26.7,49.2,27.6,49.2,28.7C49.2,28.7,49.2,28.7,49.2,28.7L49.2,28.7z M70.8,46c2.3-1,3.8-3.2,3.9-5.7c0.1-2.6-1.4-4.9-3.8-6
		c-1.5-0.7-3.1-0.8-4.7-0.8h-7.1v21h3.7V47h4.5l4.5,7.5h4.3L70.8,46z M71,40.1c0,1-0.4,2-1.3,2.7c-0.8,0.6-1.8,0.9-2.9,0.9
		c-0.9,0-3.6,0-4,0v-7h2.9c1.3,0,2.8-0.1,3.9,0.7C70.6,38.1,71,39.1,71,40.1L71,40.1z M95.6,45.3c-0.4-0.7-1-1.3-1.7-1.7
		c0.6-0.4,1.2-0.9,1.6-1.6c0.5-0.8,0.7-1.7,0.7-2.7c0-1.8-0.6-3.3-1.9-4.3c-1.2-1-3-1.5-5.1-1.5h-8.7v21h8.8c2.1,0,3.9-0.5,5.2-1.6
		c1.3-1.1,2-2.6,2-4.6C96.4,47.2,96.2,46.2,95.6,45.3L95.6,45.3z M91.9,50.3c-0.6,0.5-1.5,0.8-2.6,0.8h-5.2v-5.6h5
		c1.3,0,2.3,0.3,2.9,0.8c0.6,0.5,0.8,1.2,0.8,2.1C92.8,49.2,92.5,49.8,91.9,50.3L91.9,50.3z M91.8,41.3c-0.5,0.5-1.4,0.8-2.5,0.8
		h-5.2v-5.2h5.1c1.1,0,2,0.2,2.6,0.7s0.8,1,0.8,1.8C92.5,40.2,92.3,40.8,91.8,41.3L91.8,41.3z M105,37v5.2h8.6v3.5H105V51h10.4v3.5
		h-14v-21h14V37L105,37z M22,44l10.5,10.5h-4.7l-9.4-9.3v9.3h-3.7v-21h3.7v9.3l9.4-9.3h4.7L22,44z">
  </path>
  <path class="st0" d="M44,33.1c-6,0-10.9,4.9-10.9,10.9c0,6,4.9,10.9,10.9,10.9S54.9,50,54.9,44C54.9,38,50,33.1,44,33.1
		C44,33.1,44,33.1,44,33.1z M44,51.3c-4,0-7.3-3.3-7.3-7.3s3.3-7.3,7.3-7.3s7.3,3.3,7.3,7.3v0C51.3,48,48,51.3,44,51.3z M105.6,0
		C94.1,0,83,4.5,74.8,12.6C66.6,4.5,55.5,0,44,0C19.7,0,0,19.7,0,44s19.7,44,44,44c11.5,0,22.6-4.5,30.8-12.6
		C83,83.5,94.1,88,105.6,88c24.3,0,44-19.7,44-44S129.9,0,105.6,0L105.6,0z M105.6,84.6c-11.1,0-21.1-4.5-28.4-11.7
		c3.2-3.7,5.7-7.8,7.6-12.3H81c-1.6,3.5-3.7,6.8-6.2,9.8c-2.5-2.9-4.6-6.2-6.2-9.8h-3.8c1.8,4.5,4.4,8.6,7.6,12.3
		C65.1,80.1,55.1,84.6,44,84.6C21.6,84.6,3.4,66.4,3.4,44S21.6,3.4,44,3.4c11.1,0,21.1,4.5,28.4,11.7c-3.2,3.7-5.7,7.8-7.6,12.3h3.8
		c1.6-3.5,3.7-6.8,6.2-9.8c2.5,2.9,4.6,6.2,6.2,9.8h3.8c-1.8-4.5-4.4-8.6-7.6-12.3c7.3-7.2,17.4-11.7,28.4-11.7
		c22.4,0,40.6,18.2,40.6,40.6S128,84.6,105.6,84.6L105.6,84.6z M131.9,46c2.3-1,3.8-3.2,3.9-5.7c0.1-2.6-1.4-4.9-3.8-6
		c-1.5-0.7-3.1-0.8-4.7-0.8h-7.1v21h3.7V47h4.5l4.5,7.5h4.3L131.9,46z M132.1,40.1c0,1-0.4,2-1.3,2.7c-0.8,0.6-1.8,0.9-2.9,0.9
		c-0.9,0-3.6,0-4,0v-7h2.9c1.3,0,2.8-0.1,3.9,0.7C131.6,38.1,132.1,39.1,132.1,40.1z M42.8,28.7c0,1.1-0.9,2-2,2s-2-0.9-2-2
		c0-1.1,0.9-2,2-2S42.8,27.6,42.8,28.7L42.8,28.7z M49.2,28.7c0,1.1-0.9,2-2,2c-1.1,0-2-0.9-2-2c0-1.1,0.9-2,2-2
		C48.3,26.7,49.2,27.6,49.2,28.7C49.2,28.7,49.2,28.7,49.2,28.7L49.2,28.7z M70.8,46c2.3-1,3.8-3.2,3.9-5.7c0.1-2.6-1.4-4.9-3.8-6
		c-1.5-0.7-3.1-0.8-4.7-0.8h-7.1v21h3.7V47h4.5l4.5,7.5h4.3L70.8,46z M71,40.1c0,1-0.4,2-1.3,2.7c-0.8,0.6-1.8,0.9-2.9,0.9
		c-0.9,0-3.6,0-4,0v-7h2.9c1.3,0,2.8-0.1,3.9,0.7C70.6,38.1,71,39.1,71,40.1L71,40.1z M95.6,45.3c-0.4-0.7-1-1.3-1.7-1.7
		c0.6-0.4,1.2-0.9,1.6-1.6c0.5-0.8,0.7-1.7,0.7-2.7c0-1.8-0.6-3.3-1.9-4.3c-1.2-1-3-1.5-5.1-1.5h-8.7v21h8.8c2.1,0,3.9-0.5,5.2-1.6
		c1.3-1.1,2-2.6,2-4.6C96.4,47.2,96.2,46.2,95.6,45.3L95.6,45.3z M91.9,50.3c-0.6,0.5-1.5,0.8-2.6,0.8h-5.2v-5.6h5
		c1.3,0,2.3,0.3,2.9,0.8c0.6,0.5,0.8,1.2,0.8,2.1C92.8,49.2,92.5,49.8,91.9,50.3L91.9,50.3z M91.8,41.3c-0.5,0.5-1.4,0.8-2.5,0.8
		h-5.2v-5.2h5.1c1.1,0,2,0.2,2.6,0.7s0.8,1,0.8,1.8C92.5,40.2,92.3,40.8,91.8,41.3L91.8,41.3z M105,37v5.2h8.6v3.5H105V51h10.4v3.5
		h-14v-21h14V37L105,37z M22,44l10.5,10.5h-4.7l-9.4-9.3v9.3h-3.7v-21h3.7v9.3l9.4-9.3h4.7L22,44z">
  </path>
 </g>
</svg>